<svg width="452" height="422" viewBox="0 0 452 422" fill="none" xmlns="http://www.w3.org/2000/svg">
<rect x="1" y="1" width="450" height="420" rx="20" fill="white" stroke="#55CBDC"/>
<mask id="mask0_162_2718" style="mask-type:alpha" maskUnits="userSpaceOnUse" x="1" y="1" width="450" height="420">
<rect x="1" y="1" width="450" height="420" rx="20" fill="#232F3C"/>
</mask>
<g mask="url(#mask0_162_2718)">
<path d="M405.623 451.794C341.023 475.155 282.865 466.701 240.022 415.015C197.18 363.33 184.849 298.895 194.158 233.127C203.466 167.358 242.423 121.4 311.03 95.2504C379.636 69.1013 433.4 85.0724 472.322 143.164C511.243 201.255 526.007 261.376 516.614 323.527C507.22 385.678 470.223 428.434 405.623 451.794Z" fill="#55CBDC"/>
<path d="M449.664 372.98C417.06 374.088 408.725 359.921 424.659 330.477C440.592 301.033 460.899 282.454 485.578 274.741C510.258 267.027 533.133 276.063 554.205 301.848C575.278 327.632 571.273 345.657 542.192 355.921C513.111 366.185 482.268 371.871 449.664 372.98Z" fill="white"/>
<path fill-rule="evenodd" clip-rule="evenodd" d="M450.802 84.6034C460.081 84.6034 467.603 77.081 467.603 67.8017C467.603 58.5224 460.081 51 450.802 51C441.522 51 434 58.5224 434 67.8017C434 77.081 441.522 84.6034 450.802 84.6034Z" fill="#55CBDC"/>
<path d="M304.343 211.463C310.381 225.621 307.897 237.782 296.891 247.947C285.884 258.112 272.975 262.535 258.162 261.216C243.349 259.897 232.586 251.727 225.875 236.707C219.163 221.687 222.051 209.495 234.538 200.132C247.025 190.769 260.272 186.777 274.278 188.157C288.284 189.537 298.306 197.306 304.343 211.463Z" fill="white"/>
<path d="M415.1 191.09C415.1 191.09 420.881 198.3 429.552 203.576C438.223 208.928 448.746 234.643 429.7 253.001C416.138 266.082 413.544 281.838 420.51 294.027" stroke="#333333" stroke-miterlimit="10"/>
<path d="M437.926 391.909C438.519 388.565 439.112 385.443 439.631 382.47L441.335 391.909" stroke="#333333" stroke-miterlimit="10"/>
<path d="M287.184 391.909L290.075 374.964C290.89 379.646 291.928 385.518 293.039 391.909" stroke="#333333" stroke-miterlimit="10"/>
<path d="M306.009 295.365C304.675 295.811 303.785 296.182 303.489 296.479C303.489 296.479 288.518 302.277 281.848 310.155C278.81 313.722 268.657 339.438 258.133 367.68" stroke="#333333" stroke-miterlimit="10"/>
<path d="M479.651 391.909C466.162 355.64 449.71 313.128 445.782 308.594C441.113 303.168 432.442 298.783 427.625 296.554C427.625 296.479 427.551 296.479 427.551 296.479C427.18 296.182 425.994 295.662 424.067 295.067C418.657 293.358 407.985 290.608 397.165 287.932" stroke="#333333" stroke-miterlimit="10"/>
<path d="M385.826 285.182C389.458 286.074 393.311 286.966 397.165 287.932C394.423 302.648 381.602 314.02 366.113 314.168H365.742C364.927 314.168 364.186 314.168 363.37 314.094" stroke="#333333" stroke-miterlimit="10"/>
<path d="M385.9 270.764L386.048 281.912C386.196 293.135 377.081 302.425 365.89 302.574H365.52C354.329 302.722 345.065 293.581 344.917 282.358L344.843 273.96" stroke="#333333" stroke-miterlimit="10"/>
<path d="M404.576 201.57L407.244 200.975C414.433 200.158 419.769 205.732 421.029 212.124C422.437 219.556 417.62 226.765 410.209 228.177C409.764 228.251 409.32 228.326 408.875 228.4" stroke="#333333" stroke-miterlimit="10"/>
<path d="M404.576 201.57L408.134 222.306C412.506 247.798 395.386 272.25 369.966 276.635C359.813 278.419 349.808 276.71 341.211 272.399" stroke="#333333" stroke-miterlimit="10"/>
<path d="M286.073 222.157C286.073 222.157 280.144 219.556 274.808 204.543C269.472 189.53 304.082 128.437 343.138 121.599C382.121 114.836 400.352 130.518 394.201 150.064C394.201 150.064 403.316 150.064 408.43 157.571C413.618 165.077 406.577 178.827 415.026 191.09" stroke="#333333" stroke-miterlimit="10"/>
<path d="M406.873 214.65C404.65 215.022 401.463 212.272 400.945 209.448C400.426 206.549 399.907 203.502 399.907 203.502C399.907 203.502 386.271 191.09 383.38 174.516" stroke="#333333" stroke-miterlimit="10"/>
<path fill-rule="evenodd" clip-rule="evenodd" d="M336.913 219.407C339.284 219.036 341.582 220.671 341.952 223.049L342.842 228.697C343.212 231.076 341.582 233.38 339.21 233.751C336.839 234.123 334.541 232.488 334.171 230.11L333.281 224.461C332.837 222.083 334.467 219.779 336.913 219.407Z" fill="#333333"/>
<path fill-rule="evenodd" clip-rule="evenodd" d="M373.746 208.259C373.153 209.151 373.375 210.414 374.265 211.009C375.154 211.603 376.414 211.38 377.007 210.488C377.007 210.488 380.564 204.989 387.234 204.989C388.346 204.989 389.235 204.097 389.235 203.056C389.235 201.941 388.346 201.049 387.308 201.049C378.489 200.975 373.746 208.259 373.746 208.259Z" fill="#333333"/>
<path d="M254.65 282.581C256.058 281.987 259.022 281.095 259.245 284.142C259.393 286.149 258.059 289.196 256.132 292.763C254.427 295.959 253.464 298.635 252.426 302.574C250.944 307.999 252.056 308.817 248.943 312.83C243.533 319.891 240.494 316.844 245.979 331.485C251.389 345.681 261.987 375.261 263.469 391.835" stroke="#333333" stroke-miterlimit="10"/>
<path d="M230.119 391.909C228.192 382.247 225.005 321.452 225.005 321.452" stroke="#333333" stroke-miterlimit="10"/>
<path d="M241.087 303.169L228.785 317.215L224.412 322.121" stroke="#333333" stroke-miterlimit="10"/>
<path d="M247.461 288.304L250.722 284.588L251.685 283.473C252.574 282.433 254.205 282.358 255.242 283.25C256.28 284.142 256.354 285.777 255.465 286.818L254.501 287.932L246.794 296.628" stroke="#333333" stroke-miterlimit="10"/>
<path d="M230.489 307.628L232.49 305.324" stroke="#333333" stroke-miterlimit="10"/>
<path d="M220.706 318.776L225.005 313.871L228.118 310.229" stroke="#333333" stroke-miterlimit="10"/>
<path fill-rule="evenodd" clip-rule="evenodd" d="M216.63 327.992C216.927 327.844 223.3 323.459 224.412 322.121C225.079 320.114 222.337 318.33 220.632 318.776C219.447 320.114 215.889 326.952 215.815 327.249C215.667 327.769 216.186 328.141 216.63 327.992Z" stroke="#333333" stroke-miterlimit="10"/>
<path fill-rule="evenodd" clip-rule="evenodd" d="M216.63 327.992C216.704 327.918 217.371 327.472 218.335 326.877C218.187 326.58 217.964 326.283 217.668 325.985C217.371 325.762 217.075 325.54 216.704 325.465C216.186 326.431 215.815 327.175 215.815 327.323C215.667 327.769 216.186 328.141 216.63 327.992Z" stroke="#333333" stroke-miterlimit="10"/>
<path d="M234.788 307.553L227.969 315.357C227.747 315.655 227.302 315.655 227.006 315.432C226.71 315.209 226.71 314.763 226.932 314.465L233.676 306.81" stroke="#333333" stroke-miterlimit="10"/>
<path fill-rule="evenodd" clip-rule="evenodd" d="M254.501 286.223L252.426 284.365C251.981 283.919 251.24 283.993 250.796 284.439L249.239 286.223C249.684 285.777 250.351 285.703 250.87 286.149L252.945 288.007C253.389 288.453 253.464 289.122 253.019 289.642L254.279 288.23L254.575 287.858C255.02 287.338 254.946 286.595 254.501 286.223Z" stroke="#333333" stroke-miterlimit="10"/>
<path d="M247.535 290.98L249.61 288.676C249.832 288.378 250.277 288.378 250.573 288.601C250.87 288.824 250.87 289.27 250.647 289.568L247.386 293.284" stroke="#333333" stroke-miterlimit="10"/>
<path fill-rule="evenodd" clip-rule="evenodd" d="M218.706 307.331C218.187 301.831 218.632 295.959 220.04 295.439C222.486 294.547 223.004 294.547 223.004 294.547C223.301 290.905 224.264 285.554 229.6 288.155C231.008 283.25 233.825 276.784 238.197 283.696C238.197 283.696 241.162 277.527 244.274 279.608C245.905 280.649 246.942 283.027 247.535 285.926C247.98 290.757 247.313 296.256 245.831 300.121C244.348 303.837 242.273 304.655 239.828 301.905C237.604 299.452 240.643 305.918 236.27 307.479C233.009 308.594 231.601 301.979 231.008 303.763C230.267 305.77 231.379 309.412 228.711 310.155C226.71 310.749 225.154 308.817 225.154 308.817C225.154 308.817 226.117 315.506 221.819 313.648C220.262 313.053 219.299 310.526 218.706 307.331Z" stroke="#333333" stroke-miterlimit="10"/>
<path fill-rule="evenodd" clip-rule="evenodd" d="M326.389 211.529C325.574 212.198 325.425 213.461 326.167 214.279C326.834 215.096 328.093 215.245 328.909 214.502C328.909 214.502 333.874 210.191 340.248 212.124C341.285 212.421 342.397 211.826 342.693 210.786C342.99 209.745 342.397 208.63 341.359 208.333C332.985 205.88 326.463 211.529 326.389 211.529Z" fill="#333333"/>
<path fill-rule="evenodd" clip-rule="evenodd" d="M377.303 239.251C378.637 246.46 373.969 253.372 366.78 254.785C359.591 256.122 352.699 251.44 351.291 244.231C351.068 242.967 351.883 241.778 353.143 241.555L374.635 237.467C375.821 237.17 377.007 237.988 377.303 239.251Z" stroke="#333333" stroke-miterlimit="10"/>
<path fill-rule="evenodd" clip-rule="evenodd" d="M374.339 250.325C372.412 252.555 369.818 254.19 366.705 254.785C364.186 255.231 361.666 255.008 359.443 254.116C359.961 251.217 362.481 248.69 365.964 247.873C369.299 247.129 372.56 248.17 374.339 250.325Z" stroke="#333333" stroke-miterlimit="10"/>
<path fill-rule="evenodd" clip-rule="evenodd" d="M353.81 241.332L373.969 237.542C374.71 239.697 374.117 242.15 372.709 242.967C371.004 243.934 356.33 246.312 355.07 245.346C354.477 244.9 354.107 243.116 353.81 241.332Z" fill="white" stroke="#333333" stroke-miterlimit="10"/>
<path d="M362.926 318.033C361.296 317.29 359.591 316.695 357.961 316.249C357.961 316.249 365.149 315.58 364.26 311.27C363.371 306.959 344.25 312.459 341.656 293.581C339.062 274.703 345.658 259.616 334.467 248.393C323.277 237.096 326.093 193.394 352.032 174.07C377.971 154.747 383.381 174.516 383.381 174.516C383.381 174.516 386.864 147.017 373.153 141.22C359.443 135.423 322.387 141.815 309.788 165.003C298.375 185.962 283.85 218.664 283.85 238.062" stroke="#333333" stroke-miterlimit="10"/>
<path fill-rule="evenodd" clip-rule="evenodd" d="M283.85 237.096C283.776 239.474 283.924 241.629 284.368 243.636C287.926 261.697 313.716 274.034 307.565 291.054C301.414 308.074 293.632 338.992 318.978 354.674C344.398 370.281 333.875 354.154 333.875 354.154C333.875 354.154 361.814 359.356 374.784 347.985C386.716 337.58 375.896 323.31 361.963 317.661C364.927 318.999 369.596 328.066 359.443 332.526C349.067 337.059 334.912 333.418 334.912 333.418C337.432 332.823 341.508 327.769 332.541 327.323C323.499 326.952 309.788 314.614 316.533 292.392C323.277 270.169 303.86 264.595 293.706 255.007C284.146 245.94 283.85 238.136 283.85 237.096Z" stroke="#333333" stroke-miterlimit="10"/>
<path fill-rule="evenodd" clip-rule="evenodd" d="M391.829 215.765C390.866 215.468 389.828 215.245 388.791 215.171C389.235 215.171 389.606 215.096 390.051 215.171C390.866 215.171 391.607 214.502 391.681 213.684C391.681 212.867 391.014 212.124 390.199 212.049C386.641 211.975 383.381 213.09 380.564 215.245C379.304 216.137 378.045 217.4 377.155 218.664C376.933 219.036 376.859 219.407 376.933 219.779C376.933 220.076 377.081 220.448 377.229 220.671C377.748 221.339 378.712 221.414 379.453 220.894C382.788 218.441 386.938 217.475 390.94 218.738C391.755 219.036 392.644 218.515 392.867 217.698C393.163 216.88 392.644 215.988 391.829 215.765Z" fill="#333333"/>
<path d="M223.314 391.909C320.548 391.909 414.062 391.909 511.296 391.909C513.223 391.909 514.631 392.876 515.15 394.288C515.224 394.511 515.298 394.734 515.372 395.031L516.78 399.862" stroke="#333333" stroke-miterlimit="10"/>
<path d="M500.698 455.381L499.142 460.36C498.179 463.556 494.77 466.157 491.583 466.157C431.085 466.157 370.588 466.157 310.091 466.157M512.408 417.774L516.929 403.429C517.966 400.233 516.188 397.632 513.001 397.632C417.845 397.632 322.69 397.632 227.534 397.632" stroke="#333333" stroke-miterlimit="10"/>
<path d="M360.036 227.211C360.036 227.211 358.554 232.859 359.146 234.495C359.665 236.13 363 233.826 363 233.826" stroke="#333333" stroke-miterlimit="10"/>
</g>
</svg>
