<svg width="452" height="422" viewBox="0 0 452 422" fill="none" xmlns="http://www.w3.org/2000/svg">
<rect x="1" y="1" width="450" height="420" rx="20" fill="white" stroke="#4FCC97"/>
<mask id="mask0_162_2641" style="mask-type:alpha" maskUnits="userSpaceOnUse" x="1" y="1" width="450" height="420">
<rect x="1" y="1" width="450" height="420" rx="20" fill="#232F3C"/>
</mask>
<g mask="url(#mask0_162_2641)">
<path fill-rule="evenodd" clip-rule="evenodd" d="M450.802 84.6035C460.081 84.6035 467.603 77.0811 467.603 67.8018C467.603 58.5225 460.081 51.0001 450.802 51.0001C441.522 51.0001 434 58.5225 434 67.8018C434 77.0811 441.522 84.6035 450.802 84.6035Z" fill="#4FCC97"/>
<path d="M515.939 241.774C526.549 305.913 502.493 364.616 443.772 417.885C385.051 471.154 325.136 472.783 264.029 422.773C202.922 372.763 181.588 318.861 200.029 261.068C218.469 203.275 246.927 153.777 285.404 112.575C323.881 71.3732 369.27 66.5713 421.571 98.1695C473.873 129.768 505.329 177.636 515.939 241.774Z" fill="#4FCC97"/>
<path d="M503.343 345.463C509.381 359.621 506.897 371.782 495.891 381.947C484.885 392.112 471.975 396.535 457.162 395.216C442.349 393.897 431.586 385.727 424.875 370.707C418.163 355.687 421.051 343.495 433.538 334.132C446.026 324.769 459.272 320.777 473.278 322.157C487.284 323.537 497.306 331.306 503.343 345.463Z" fill="white"/>
<path d="M273.643 301.568C247.763 309.703 237.935 300.203 244.158 273.068C250.382 245.933 262.524 226.532 280.585 214.866C298.647 203.199 318.985 205.355 341.602 221.333C364.218 237.311 365.015 252.644 343.994 267.332C322.973 282.021 299.522 293.432 273.643 301.568Z" fill="white"/>
<path d="M418.092 392.383C418.092 392.383 429.887 426.84 429.887 446.929M303.772 450.835C303.772 427.956 314.004 391.779 314.004 391.779" stroke="#333333" stroke-miterlimit="10" stroke-linecap="round" stroke-linejoin="round"/>
<path d="M266.25 361.929C268.865 347.783 271.412 334.572 273.811 324.271" stroke="#333333" stroke-miterlimit="10" stroke-linecap="round" stroke-linejoin="round"/>
<path d="M309.251 352.672C305.157 370.711 299.817 391.049 294.036 410.379C290.976 420.613 279.715 425.944 269.881 421.774" stroke="#333333" stroke-miterlimit="10" stroke-linecap="round" stroke-linejoin="round"/>
<path d="M242.724 331.448L281.424 381.59" stroke="#333333" stroke-miterlimit="10" stroke-linecap="round" stroke-linejoin="round"/>
<path d="M286.563 420.279C277.708 426.027 265.832 423.005 260.801 413.723L224.926 347.534" stroke="#333333" stroke-miterlimit="10" stroke-linecap="round" stroke-linejoin="round"/>
<path d="M239.555 338.864C243.01 333.848 244.178 327.339 242.162 321.096" stroke="#333333" stroke-miterlimit="10" stroke-linecap="round" stroke-linejoin="round"/>
<path d="M206.202 338.972C210.388 344.963 217.573 348.301 224.927 347.535" stroke="#333333" stroke-miterlimit="10" stroke-linecap="round" stroke-linejoin="round"/>
<path d="M218.259 303.641C222.286 302.348 234.383 302.207 242.162 321.096" stroke="#333333" stroke-miterlimit="10" stroke-linecap="round" stroke-linejoin="round"/>
<path d="M179.194 282.874L177.226 283.77C176.08 284.267 175.663 285.626 176.294 286.805L203.403 337.441C204.035 338.621 205.475 339.174 206.621 338.677L208.59 337.781" stroke="#333333" stroke-miterlimit="10" stroke-linecap="round" stroke-linejoin="round"/>
<path d="M218.259 303.641L203.019 275.176C202.388 273.997 200.947 273.443 199.801 273.94L179.194 282.875C178.048 283.372 177.631 284.73 178.262 285.91L205.371 336.546C206.003 337.726 207.444 338.279 208.591 337.782L229.197 328.848C230.343 328.351 230.761 326.992 230.129 325.813" stroke="#333333" stroke-miterlimit="10" stroke-linecap="round" stroke-linejoin="round"/>
<path d="M215.634 304.326L202.125 279.092L184.019 286.942L206.112 328.21L224.218 320.36" stroke="#333333" stroke-miterlimit="10" stroke-linecap="round" stroke-linejoin="round"/>
<path d="M218.26 303.641C218.26 303.641 213.671 304.537 209.531 306.883C207.706 307.916 206.772 310.022 207.278 312.056C207.739 313.911 209.294 315.292 211.19 315.532L221.903 316.882C221.903 316.882 227.493 326.516 234.796 327.598" stroke="#333333" stroke-miterlimit="10" stroke-linecap="round" stroke-linejoin="round"/>
<path d="M439.932 441.07C440.463 441.906 434.316 422.046 421.906 361.008" stroke="#333333" stroke-miterlimit="10" stroke-linecap="round" stroke-linejoin="round"/>
<path d="M393.165 230.011C407.734 235.303 428.563 245.746 445.538 269.363C450.814 276.703 462.838 302.668 465.799 323.132L438.516 327.311L425.764 329.265L417.692 395.672H314.476L306.404 329.265L293.652 327.311L266.368 323.132C269.33 302.668 278.716 280.215 286.63 269.363C302.486 247.618 322.207 235.792 336.686 230.009" stroke="#333333" stroke-miterlimit="10" stroke-linecap="round" stroke-linejoin="round"/>
<path d="M306.406 329.266L302.93 290.859" stroke="#333333" stroke-miterlimit="10" stroke-linecap="round" stroke-linejoin="round"/>
<path d="M425.765 329.266L429.393 290.859" stroke="#333333" stroke-miterlimit="10" stroke-linecap="round" stroke-linejoin="round"/>
<path d="M383.174 199.389L383.545 226.109C385.377 226.656 388.427 227.76 393.164 230.01L365.238 246.645L336.688 230.009C336.688 230.009 341.22 227.374 347.74 225.75L347.345 199.447" stroke="#333333" stroke-miterlimit="10" stroke-linecap="round" stroke-linejoin="round"/>
<path d="M383.877 198.928C383.877 198.928 377.446 216.003 360.281 214.529C351.494 213.774 348.38 206.099 347.345 199.447C347.345 199.447 353.355 205.313 364.926 205.313C376.353 205.313 383.877 198.928 383.877 198.928Z" fill="#333333"/>
<path d="M399.617 175.911C405.23 181.001 417.654 162.003 412.231 156.582C406.808 151.162 402.672 159.666 402.672 159.666" stroke="#333333" stroke-miterlimit="10" stroke-linecap="round" stroke-linejoin="round"/>
<path d="M409.611 163.421C409.611 163.421 405.363 161.51 401.589 167.668" stroke="#333333" stroke-miterlimit="10" stroke-linecap="round" stroke-linejoin="round"/>
<path d="M332.078 176.395C326.916 181.942 313.824 163.004 318.769 157.144C323.713 151.284 328.554 159.408 328.554 159.408" stroke="#333333" stroke-miterlimit="10" stroke-linecap="round" stroke-linejoin="round"/>
<path d="M321.958 163.738C321.958 163.738 326.029 161.475 330.31 167.292" stroke="#333333" stroke-miterlimit="10" stroke-linecap="round" stroke-linejoin="round"/>
<path d="M328.555 159.409C324.68 153.79 322.287 146.802 322.287 138.164C322.287 112.604 341.774 95.2166 365.811 95.2166C389.849 95.2166 409.336 112.604 409.336 138.164C409.336 145.08 407.909 151.013 405.351 155.987" stroke="#333333" stroke-miterlimit="10" stroke-linecap="round" stroke-linejoin="round"/>
<path d="M402.826 153.697C402.012 163.217 400.484 172.296 398.99 178.782C396.823 188.19 390.726 194.765 382.111 200.058L380.542 201.022C371.426 206.621 359.647 206.751 350.391 201.356C341.056 195.914 334.519 188.738 332.509 178.642C330.733 169.73 329.725 160.351 329.157 153.059" stroke="#333333" stroke-miterlimit="10" stroke-linecap="round" stroke-linejoin="round"/>
<path d="M368.389 162.547V168.028C368.389 168.352 368.326 168.664 368.212 168.949C367.762 170.069 366.47 170.606 365.3 170.295L362.786 169.628" stroke="#333333" stroke-miterlimit="10" stroke-linecap="round" stroke-linejoin="round"/>
<path d="M374.818 141.292L394.911 146.002C394.911 146.002 393.997 140.888 385.778 139.03C377.557 137.17 374.818 141.292 374.818 141.292Z" fill="#333333"/>
<path d="M356.983 141.292L337.581 146.002C337.581 146.002 338.464 140.888 346.4 139.03C354.337 137.17 356.983 141.292 356.983 141.292Z" fill="#333333"/>
<path d="M382.451 159.432C380.579 159.432 379.062 157.918 379.062 156.052C379.062 154.185 380.579 152.672 382.451 152.672C384.322 152.672 385.839 154.185 385.839 156.052C385.839 157.918 384.322 159.432 382.451 159.432Z" fill="#333333"/>
<path d="M350.326 159.432C348.454 159.432 346.937 157.918 346.937 156.052C346.937 154.185 348.454 152.672 350.326 152.672C352.197 152.672 353.714 154.185 353.714 156.052C353.714 157.918 352.197 159.432 350.326 159.432Z" fill="#333333"/>
<path d="M379.062 176.675H352.93C352.93 176.675 364.513 190.764 379.062 176.675Z" fill="white" stroke="#333333" stroke-miterlimit="10" stroke-linecap="round" stroke-linejoin="round"/>
<path d="M383.877 171.775C375.919 171.775 369.467 165.324 369.467 157.365C369.467 149.407 375.919 142.955 383.877 142.955C391.836 142.955 398.287 149.407 398.287 157.365C398.287 165.324 391.836 171.775 383.877 171.775Z" stroke="#333333" stroke-miterlimit="10" stroke-linecap="round" stroke-linejoin="round"/>
<path d="M348.477 171.775C340.518 171.775 334.066 165.324 334.066 157.365C334.066 149.407 340.518 142.955 348.477 142.955C356.435 142.955 362.887 149.407 362.887 157.365C362.887 165.324 356.435 171.775 348.477 171.775Z" stroke="#333333" stroke-miterlimit="10" stroke-linecap="round" stroke-linejoin="round"/>
<path d="M369.467 157.365C369.467 157.365 366.053 154.18 362.887 157.365" stroke="#333333" stroke-miterlimit="10" stroke-linecap="round" stroke-linejoin="round"/>
<path d="M398.287 157.365L402.826 157.25" stroke="#333333" stroke-miterlimit="10" stroke-linecap="round" stroke-linejoin="round"/>
<path d="M334.066 157.365L329.5 157.25" stroke="#333333" stroke-miterlimit="10" stroke-linecap="round" stroke-linejoin="round"/>
<path d="M331.783 119.171C329.551 122.371 327.321 125.525 326.283 130.703C323.158 146.287 328.97 153.073 328.97 153.073C328.97 153.073 338.018 140.842 341.014 125.41" stroke="#333333" stroke-miterlimit="10" stroke-linecap="round" stroke-linejoin="round"/>
<path d="M405.456 136.784C406.74 148.807 403.448 154.553 403.448 154.553C403.448 154.553 397.94 147.274 393.483 137.083" stroke="#333333" stroke-miterlimit="10" stroke-linecap="round" stroke-linejoin="round"/>
<path d="M330.325 117.8C330.325 117.8 351.082 140.523 407.871 136.634C407.871 136.634 399.175 103.289 371.653 99.7379C371.653 99.7379 339.875 95.9434 330.325 117.8Z" stroke="#333333" stroke-miterlimit="10" stroke-linecap="round" stroke-linejoin="round"/>
<path d="M358.521 95.764C358.769 94.2919 358.898 92.7789 358.898 91.2356C358.898 76.2607 346.758 64.1207 331.783 64.1207C316.808 64.1207 304.668 76.2607 304.668 91.2356C304.668 104.573 314.297 115.661 326.984 117.927" stroke="#333333" stroke-miterlimit="10" stroke-linecap="round" stroke-linejoin="round"/>
</g>
</svg>
