<svg width="40" height="40" viewBox="0 0 40 40" fill="none" xmlns="http://www.w3.org/2000/svg">
<rect x="0.5" y="0.5" width="39" height="39" rx="9.5" stroke="#333333"/>
<path fill-rule="evenodd" clip-rule="evenodd" d="M28.5 15H11.5C11.2239 15 11 14.7761 11 14.5V13.5C11 13.2239 11.2239 13 11.5 13H28.5C28.7761 13 29 13.2239 29 13.5V14.5C29 14.7761 28.7761 15 28.5 15ZM29 20.5V19.5C29 19.2239 28.7761 19 28.5 19H11.5C11.2239 19 11 19.2239 11 19.5V20.5C11 20.7761 11.2239 21 11.5 21H28.5C28.7761 21 29 20.7761 29 20.5ZM29 25.5V26.5C29 26.7761 28.7761 27 28.5 27H11.5C11.2239 27 11 26.7761 11 26.5V25.5C11 25.2239 11.2239 25 11.5 25H28.5C28.7761 25 29 25.2239 29 25.5Z" fill="#333333"/>
</svg>
