<svg width="199" height="44" viewBox="0 0 199 44" fill="none" xmlns="http://www.w3.org/2000/svg">
<circle cx="177" cy="22" r="22" fill="#4FCC97"/>
<path d="M183 21.86V22.14C182.999 22.4066 182.859 22.6533 182.63 22.79L173.68 28C173.14 28.32 172.86 28.32 172.62 28.18L172.37 28.04C172.147 27.907 172.008 27.6694 172 27.41V16.59C172.001 16.3235 172.141 16.0768 172.37 15.94L172.62 15.8C172.86 15.66 173.14 15.66 173.84 16.07L182.63 21.21C182.859 21.3468 182.999 21.5935 183 21.86Z" fill="white"/>
<path d="M0.51975 26.032H1.31975C1.50108 25.8293 1.67175 25.568 1.83175 25.248C1.99175 24.9173 2.12508 24.5067 2.23175 24.016C2.34908 23.5147 2.43975 22.928 2.50375 22.256C2.56775 21.5733 2.59975 20.784 2.59975 19.888V16.832H8.59975V26.032H9.67175V30.4H7.46375V28H2.72775V30.4H0.51975V26.032ZM6.27975 18.736H4.69575V20.24C4.69575 21.0293 4.66908 21.7333 4.61575 22.352C4.57308 22.96 4.50908 23.4987 4.42375 23.968C4.33842 24.4267 4.23175 24.8267 4.10375 25.168C3.98642 25.5093 3.85308 25.7973 3.70375 26.032H6.27975V18.736ZM10.8175 16.832H13.0735V20.976L12.8815 23.968H13.0415L16.4015 16.832H18.6575V28H16.4015V23.856L16.5935 20.864H16.4335L13.0735 28H10.8175V16.832ZM20.7633 16.832H24.6833C25.7819 16.832 26.6193 17.0987 27.1953 17.632C27.7819 18.1653 28.0753 18.8907 28.0753 19.808C28.0753 20.448 27.9153 20.96 27.5953 21.344C27.2859 21.7173 26.8379 21.9893 26.2513 22.16V22.256C26.9446 22.4267 27.4779 22.7253 27.8513 23.152C28.2353 23.5787 28.4273 24.1707 28.4273 24.928C28.4273 25.8667 28.1286 26.6133 27.5312 27.168C26.9446 27.7227 26.1179 28 25.0513 28H20.7633V16.832ZM24.3153 26.32C24.8913 26.32 25.3126 26.224 25.5793 26.032C25.8459 25.84 25.9793 25.488 25.9793 24.976V24.512C25.9793 24 25.8459 23.648 25.5793 23.456C25.3126 23.264 24.8913 23.168 24.3153 23.168H23.0993V26.32H24.3153ZM24.0113 21.568C24.5766 21.568 24.9873 21.4773 25.2433 21.296C25.4993 21.104 25.6273 20.7627 25.6273 20.272V19.792C25.6273 19.3013 25.4993 18.9653 25.2433 18.784C24.9873 18.6027 24.5766 18.512 24.0113 18.512H23.0993V21.568H24.0113ZM30.005 16.832H32.261V20.976L32.069 23.968H32.229L35.589 16.832H37.845V28H35.589V23.856L35.781 20.864H35.621L32.261 28H30.005V16.832ZM44.7188 18.8V28H42.3188V18.8H39.1028V16.832H47.9348V18.8H44.7188ZM49.1925 16.832H51.4485V20.976L51.2565 23.968H51.4165L54.7765 16.832H57.0325V28H54.7765V23.856L54.9685 20.864H54.8085L51.4485 28H49.1925V16.832ZM62.9623 28.192C61.4689 28.192 60.3596 27.6907 59.6343 26.688C58.9196 25.6747 58.5623 24.2507 58.5623 22.416C58.5623 20.5813 58.9196 19.1627 59.6343 18.16C60.3596 17.1467 61.4689 16.64 62.9623 16.64C63.5383 16.64 64.0449 16.72 64.4823 16.88C64.9303 17.0293 65.3143 17.2427 65.6343 17.52C65.9543 17.7973 66.2156 18.1333 66.4183 18.528C66.6316 18.9227 66.7969 19.3653 66.9143 19.856L64.6743 20.4C64.6103 20.1333 64.5356 19.888 64.4503 19.664C64.3649 19.44 64.2529 19.248 64.1143 19.088C63.9863 18.928 63.8209 18.8053 63.6183 18.72C63.4263 18.624 63.1916 18.576 62.9143 18.576C62.2636 18.576 61.7996 18.832 61.5223 19.344C61.2556 19.8453 61.1223 20.544 61.1223 21.44V23.392C61.1223 24.288 61.2556 24.992 61.5223 25.504C61.7996 26.0053 62.2636 26.256 62.9143 26.256C63.4689 26.256 63.8689 26.0853 64.1143 25.744C64.3703 25.4027 64.5569 24.9653 64.6743 24.432L66.9143 24.976C66.7969 25.4667 66.6316 25.9093 66.4183 26.304C66.2156 26.6987 65.9543 27.04 65.6343 27.328C65.3143 27.6053 64.9303 27.8187 64.4823 27.968C64.0449 28.1173 63.5383 28.192 62.9623 28.192ZM68.588 16.832H71.004V20.864H73.1C74.1453 20.864 74.972 21.184 75.58 21.824C76.188 22.4533 76.492 23.3227 76.492 24.432C76.492 24.976 76.412 25.4667 76.252 25.904C76.092 26.3413 75.8627 26.72 75.564 27.04C75.276 27.3493 74.924 27.5893 74.508 27.76C74.092 27.92 73.6227 28 73.1 28H68.588V16.832ZM72.652 26.112C73.5373 26.112 73.98 25.7173 73.98 24.928V23.936C73.98 23.1467 73.5373 22.752 72.652 22.752H71.004V26.112H72.652ZM87.9195 16.832H91.8395C92.9382 16.832 93.7755 17.0987 94.3515 17.632C94.9382 18.1653 95.2315 18.8907 95.2315 19.808C95.2315 20.448 95.0715 20.96 94.7515 21.344C94.4422 21.7173 93.9942 21.9893 93.4075 22.16V22.256C94.1008 22.4267 94.6342 22.7253 95.0075 23.152C95.3915 23.5787 95.5835 24.1707 95.5835 24.928C95.5835 25.8667 95.2848 26.6133 94.6875 27.168C94.1008 27.7227 93.2742 28 92.2075 28H87.9195V16.832ZM91.4715 26.32C92.0475 26.32 92.4688 26.224 92.7355 26.032C93.0022 25.84 93.1355 25.488 93.1355 24.976V24.512C93.1355 24 93.0022 23.648 92.7355 23.456C92.4688 23.264 92.0475 23.168 91.4715 23.168H90.2555V26.32H91.4715ZM91.1675 21.568C91.7328 21.568 92.1435 21.4773 92.3995 21.296C92.6555 21.104 92.7835 20.7627 92.7835 20.272V19.792C92.7835 19.3013 92.6555 18.9653 92.3995 18.784C92.1435 18.6027 91.7328 18.512 91.1675 18.512H90.2555V21.568H91.1675ZM97.4813 28V26.224H99.8813V18.608H97.4813V16.832H104.681V18.608H102.281V26.224H104.681V28H97.4813ZM106.051 26.032H106.851C107.032 25.8293 107.203 25.568 107.363 25.248C107.523 24.9173 107.656 24.5067 107.763 24.016C107.88 23.5147 107.971 22.928 108.035 22.256C108.099 21.5733 108.131 20.784 108.131 19.888V16.832H114.131V26.032H115.203V30.4H112.995V28H108.259V30.4H106.051V26.032ZM111.811 18.736H110.227V20.24C110.227 21.0293 110.2 21.7333 110.147 22.352C110.104 22.96 110.04 23.4987 109.955 23.968C109.87 24.4267 109.763 24.8267 109.635 25.168C109.518 25.5093 109.384 25.7973 109.235 26.032H111.811V18.736ZM116.749 28V16.832H123.885V18.8H119.149V21.36H123.725V23.328H119.149V26.032H123.885V28H116.749ZM129.863 28.192C128.369 28.192 127.265 27.6853 126.551 26.672C125.847 25.6587 125.495 24.24 125.495 22.416C125.495 20.592 125.847 19.1733 126.551 18.16C127.265 17.1467 128.369 16.64 129.863 16.64C131.356 16.64 132.455 17.1467 133.159 18.16C133.873 19.1733 134.231 20.592 134.231 22.416C134.231 24.24 133.873 25.6587 133.159 26.672C132.455 27.6853 131.356 28.192 129.863 28.192ZM129.863 26.256C130.545 26.256 131.015 26.0053 131.271 25.504C131.537 24.992 131.671 24.2827 131.671 23.376V21.44C131.671 20.544 131.537 19.8453 131.271 19.344C131.015 18.832 130.545 18.576 129.863 18.576C129.18 18.576 128.705 18.832 128.439 19.344C128.183 19.8453 128.055 20.544 128.055 21.44V23.392C128.055 24.288 128.183 24.992 128.439 25.504C128.705 26.0053 129.18 26.256 129.863 26.256Z" fill="#333333"/>
</svg>
