<svg width="523" height="420" viewBox="0 0 523 420" fill="none" xmlns="http://www.w3.org/2000/svg">
<path d="M72.8737 290.548C68.5228 299.377 61.5842 303.242 52.058 302.144C42.5319 301.046 34.9979 296.632 29.4563 288.901C23.9146 281.171 23.3879 272.548 27.8762 263.033C32.3645 253.518 39.4862 249.836 49.2414 251.986C58.9966 254.136 66.4618 258.893 71.6371 266.258C76.8124 273.623 77.2246 281.719 72.8737 290.548Z" fill="#55CBDC"/>
<path d="M391.243 179.948C415.883 154.676 432.428 159.171 440.877 193.433C449.326 227.696 446.662 256.997 432.885 281.338C419.107 305.679 394.862 315.97 360.148 312.211C325.435 308.453 315.779 291.787 331.181 262.214C346.582 232.642 366.603 205.219 391.243 179.948Z" fill="#55CBDC"/>
<path d="M222.029 125.755V49.6816H292.73V125.755" stroke="#333333" stroke-width="1.5" stroke-miterlimit="10"/>
<path d="M230.038 62.1364H243.902" stroke="#333333" stroke-width="1.5" stroke-miterlimit="10"/>
<path d="M230.038 75.9592H282.101" stroke="#333333" stroke-width="1.5" stroke-miterlimit="10"/>
<path d="M230.038 89.7841H282.101" stroke="#333333" stroke-width="1.5" stroke-miterlimit="10"/>
<path d="M230.038 103.607H282.101" stroke="#333333" stroke-width="1.5" stroke-miterlimit="10"/>
<path d="M230.038 117.432H282.101" stroke="#333333" stroke-width="1.5" stroke-miterlimit="10"/>
<path d="M142.577 90.0012C142.577 90.0012 147.24 54.7812 149.25 41.4582C151.259 28.1365 149.318 1.76617 133.707 1.73928C118.096 1.71239 116.047 24.107 119.987 43.9604C123.915 63.7546 142.577 90.0012 142.577 90.0012Z" stroke="#333333" stroke-width="1.5" stroke-miterlimit="10"/>
<path d="M150.068 143.627C150.068 143.627 127.044 82.1466 108.364 92.7066C89.6845 103.265 117.104 144.068 150.068 143.627Z" stroke="#333333" stroke-width="1.5" stroke-miterlimit="10"/>
<path d="M155.996 120.288C155.996 120.288 150.07 99.0139 156.069 78.3282C162.068 57.6412 174.465 57.3132 178.516 65.4557C187.369 83.2465 160.991 106.668 155.996 120.288Z" stroke="#333333" stroke-width="1.5" stroke-miterlimit="10"/>
<path d="M171.235 172.057C171.235 172.057 167.01 153.549 169.393 129.739C171.775 105.927 188.185 95.3553 199.452 104.345C205.444 109.126 203.684 134.953 190.022 149.125C178.543 161.03 171.235 172.057 171.235 172.057Z" stroke="#333333" stroke-width="1.5" stroke-miterlimit="10"/>
<path d="M169.534 189.622C169.534 189.622 152.307 161.818 134.645 157.536C116.984 153.252 114.835 165.582 121.201 176.65C127.569 187.718 145.47 195.534 169.534 189.622Z" stroke="#333333" stroke-width="1.5" stroke-miterlimit="10"/>
<path d="M132.568 3.76123C132.568 3.76123 130.905 93.1634 176.062 193.696" stroke="#333333" stroke-width="1.5" stroke-miterlimit="10"/>
<path d="M188.158 110.633C187.731 111.271 171.318 152.988 170.499 180.809" stroke="#333333" stroke-width="1.5" stroke-miterlimit="10"/>
<path d="M124.98 164.748C124.98 164.748 136.106 179.402 175.037 191.395" stroke="#333333" stroke-width="1.5" stroke-miterlimit="10"/>
<path d="M108.348 100.361C114.373 117.529 126.026 134.803 157.478 145.684" stroke="#333333" stroke-width="1.5" stroke-miterlimit="10"/>
<path d="M171.631 65.2495C171.631 65.2495 157.575 88.6794 154.472 136.231" stroke="#333333" stroke-width="1.5" stroke-miterlimit="10"/>
<path d="M199.351 227.988C197.072 218.176 194.158 209.591 190.129 203.808C171.507 177.075 146.352 212.342 129.084 191.643C111.816 170.944 91.0937 52.9581 42.0516 54.5352C-6.99046 56.1123 37.9072 229.592 17.8758 227.613C11.9424 227.027 6.25151 222.24 0.76709 215.881" stroke="#333333" stroke-width="1.5" stroke-miterlimit="10"/>
<path d="M42.0514 54.5342C42.0514 54.5342 71.8993 230.082 114.809 337.904" stroke="#333333" stroke-width="1.5" stroke-miterlimit="10"/>
<path d="M3.67712 258.924C3.67712 258.924 3.44254 279.159 52.0997 337.91" stroke="#333333" stroke-width="1.5" stroke-miterlimit="10"/>
<path d="M179.798 194.828C179.798 194.828 154.451 264.377 152.04 337.904" stroke="#333333" stroke-width="1.5" stroke-miterlimit="10"/>
<path d="M195.223 213.941C195.223 213.941 187.693 219.628 169.01 230.304" stroke="#333333" stroke-width="1.5" stroke-miterlimit="10"/>
<path d="M193.686 260.367C185.388 270.962 171.988 286.286 155.276 299.109" stroke="#333333" stroke-width="1.5" stroke-miterlimit="10"/>
<path d="M123.111 181.314C123.111 181.314 126.865 264.866 105.96 314.244" stroke="#333333" stroke-width="1.5" stroke-miterlimit="10"/>
<path d="M92.9702 104.537C92.9702 104.537 95.9341 194.828 80.4778 230.304" stroke="#333333" stroke-width="1.5" stroke-miterlimit="10"/>
<path d="M22.2772 185.765C22.2772 185.765 52.7106 247.866 93.6632 276.679" stroke="#333333" stroke-width="1.5" stroke-miterlimit="10"/>
<path d="M18.1262 116.268C18.1262 116.268 43.0814 140.941 63.032 158.877" stroke="#333333" stroke-width="1.5" stroke-miterlimit="10"/>
<path d="M65.887 64.0239L53.8617 116.268" stroke="#333333" stroke-width="1.5" stroke-miterlimit="10"/>
<path d="M15.8862 313.087C15.8862 313.087 16.7749 317.661 47.0306 331.586" stroke="#333333" stroke-width="1.5" stroke-miterlimit="10"/>
<path d="M74.6209 398.519V387.31L67.5422 387.688C67.0886 386.011 66.4304 384.422 65.5824 382.95L70.8521 378.22L62.9173 370.294L58.182 375.557C56.7081 374.71 55.1171 374.052 53.4387 373.599L53.8169 366.528H42.5952L42.9734 373.599C41.2949 374.052 39.7039 374.71 38.23 375.557L33.4947 370.294L25.56 378.22L30.8296 382.95C29.9816 384.422 29.3221 386.01 28.8698 387.688L21.7911 387.31V398.519L28.8698 398.142C29.3234 399.818 29.9816 401.407 30.8296 402.88L25.56 407.61L33.4947 415.536L38.23 410.272C39.7039 411.119 41.2949 411.778 42.9734 412.231L42.5952 419.302H53.8169L53.4387 412.231C55.1171 411.778 56.7081 411.119 58.182 410.272L62.916 415.536L70.8507 407.61L65.5811 402.88C66.429 401.407 67.0886 399.818 67.5409 398.142L74.6209 398.519ZM48.2067 402.706C42.793 402.706 38.405 398.323 38.405 392.915C38.405 387.508 42.7944 383.125 48.2067 383.125C53.6204 383.125 58.0084 387.508 58.0084 392.915C58.0084 398.323 53.6204 402.706 48.2067 402.706Z" fill="#333333"/>
<path d="M498.988 73.3034V54.7448L487.268 55.3713C486.517 52.5949 485.427 49.9636 484.023 47.5273L492.748 39.6967L479.611 26.5741L471.771 35.2893C469.331 33.887 466.698 32.7966 463.919 32.0463L464.546 20.3395H445.967L446.594 32.0463C443.815 32.7966 441.18 33.8857 438.741 35.2893L430.902 26.5741L417.765 39.6967L426.49 47.5273C425.086 49.9649 423.995 52.5949 423.245 55.3713L411.525 54.7448V73.3034L423.245 72.6768C423.996 75.4533 425.086 78.0845 426.49 80.5208L417.765 88.3514L430.902 101.474L438.741 92.7588C441.182 94.1611 443.815 95.2516 446.594 96.0005L445.967 107.707H464.546L463.919 96.0005C466.698 95.2502 469.332 94.1611 471.773 92.7588L479.612 101.474L492.749 88.3514L484.024 80.5208C485.428 78.0832 486.52 75.4533 487.269 72.6768L498.988 73.3034ZM455.254 80.2345C446.291 80.2345 439.025 72.9766 439.025 64.0234C439.025 55.0701 446.291 47.8123 455.254 47.8123C464.218 47.8123 471.483 55.0701 471.483 64.0234C471.483 72.9766 464.218 80.2345 455.254 80.2345Z" fill="#333333"/>
<path d="M344.306 125.755H491.29L456.955 321.983" stroke="#333333" stroke-width="1.5" stroke-miterlimit="10"/>
<path d="M180.116 337.904L217.236 125.755H298.583" stroke="#333333" stroke-width="1.5" stroke-miterlimit="10"/>
<path d="M344.306 134.715H480.582L446.656 328.945H190.825L224.75 134.715H298.583" stroke="#333333" stroke-width="1.5" stroke-miterlimit="10"/>
<path d="M447.873 337.904H24.6653M31.1289 353.202H445.956" stroke="#333333" stroke-width="1.5" stroke-miterlimit="10"/>
<path d="M208.494 353.202V337.904" stroke="#333333" stroke-width="1.5" stroke-miterlimit="10"/>
<path d="M344.305 107.273H298.583V167.87H344.305V107.273Z" stroke="#333333" stroke-width="1.5" stroke-miterlimit="10"/>
<path d="M303.765 117.936H312.729" stroke="#333333" stroke-width="1.5" stroke-miterlimit="10"/>
<path d="M303.765 126.875H337.432" stroke="#333333" stroke-width="1.5" stroke-miterlimit="10"/>
<path d="M303.765 135.815H337.432" stroke="#333333" stroke-width="1.5" stroke-miterlimit="10"/>
<path d="M303.765 144.755H337.432" stroke="#333333" stroke-width="1.5" stroke-miterlimit="10"/>
<path d="M303.765 153.694H337.432" stroke="#333333" stroke-width="1.5" stroke-miterlimit="10"/>
<path d="M467.498 354.493C467.498 354.493 482.762 330.832 488.387 321.755C494.012 312.679 508.721 297.745 518.163 305.724C527.605 313.704 517.347 328.28 504.777 338.253C492.244 348.199 467.498 354.493 467.498 354.493Z" stroke="#333333" stroke-width="1.5" stroke-miterlimit="10"/>
<path d="M435.446 383.046C435.446 383.046 480.913 357.705 486.775 373.651C492.637 389.597 455.13 400.197 435.446 383.046Z" stroke="#333333" stroke-width="1.5" stroke-miterlimit="10"/>
<path d="M443.845 365.915C443.845 365.915 458.346 356.101 465.341 340.532C472.337 324.964 465.017 318.416 458.391 321.258C443.911 327.47 447.82 355.129 443.845 365.915Z" stroke="#333333" stroke-width="1.5" stroke-miterlimit="10"/>
<path d="M517.814 307.528C517.814 307.528 467.195 369.385 379 406.743" stroke="#333333" stroke-width="1.5" stroke-miterlimit="10"/>
<path d="M482.856 378.283C470.402 385.568 454.498 390.032 429.914 380.495" stroke="#333333" stroke-width="1.5" stroke-miterlimit="10"/>
<path d="M462.655 324.66C462.655 324.66 459.118 346.011 436.583 376.324" stroke="#333333" stroke-width="1.5" stroke-miterlimit="10"/>
</svg>
