<svg width="452" height="422" viewBox="0 0 452 422" fill="none" xmlns="http://www.w3.org/2000/svg">
<rect x="1" y="1" width="450" height="420" rx="20" fill="white" stroke="#EF5B63"/>
<mask id="mask0_162_2232" style="mask-type:alpha" maskUnits="userSpaceOnUse" x="1" y="1" width="450" height="420">
<rect x="1" y="1" width="450" height="420" rx="20" fill="#232F3C"/>
</mask>
<g mask="url(#mask0_162_2232)">
<path d="M551.799 391.469C517.561 461.019 462.961 491.469 387.998 482.821C313.035 474.172 253.749 439.397 210.141 378.496C166.533 317.594 162.388 249.666 197.707 174.71C233.026 99.7548 289.068 70.7455 365.833 87.6826C442.598 104.62 501.343 142.097 542.068 200.116C582.793 258.134 586.037 321.919 551.799 391.469Z" fill="#EF5B63"/>
<path fill-rule="evenodd" clip-rule="evenodd" d="M448.8 84.6C458.078 84.6 465.6 77.0784 465.6 67.8C465.6 58.5216 458.078 51 448.8 51C439.521 51 432 58.5216 432 67.8C432 77.0784 439.521 84.6 448.8 84.6Z" fill="#EF5B63"/>
<path d="M290.165 244.426C284.357 258.566 272.27 267.339 253.906 270.746C235.541 274.153 223.326 267.084 217.262 249.537C211.197 231.99 213.589 218.574 224.437 209.29C235.285 200.005 247.115 193.617 259.928 190.124C272.74 186.632 282.435 191.274 289.012 204.051C295.589 216.828 295.973 230.286 290.165 244.426Z" fill="white"/>
<path d="M484.86 268.269C510.679 248.328 525.719 254.96 529.98 288.167C534.242 321.373 528.608 348.314 513.08 368.988C497.551 389.663 473.705 395.688 441.541 387.063C409.377 378.439 402.101 361.469 419.713 336.154C437.326 310.838 459.041 288.21 484.86 268.269Z" fill="white"/>
<path d="M358.021 438.312L359.29 471M434.639 465.584C435.073 440.478 428.965 418.023 421.415 397.997" stroke="#333333" stroke-width="1.5" stroke-miterlimit="10"/>
<path d="M412.655 377.501C403.905 359.195 395.887 347.708 395.887 347.708L322.143 350.947C309.289 366.828 299.002 387.312 291.501 405.309C285.587 419.5 280.915 434.162 277.418 449.113M344.771 469.618L351.58 439.433" stroke="#333333" stroke-width="1.5" stroke-miterlimit="10"/>
<path d="M313.529 385.327L298.886 427.471" stroke="#333333" stroke-width="1.5" stroke-miterlimit="10" stroke-linecap="round" stroke-linejoin="round"/>
<path d="M297.496 296.304L321.698 351.072L395.887 347.708L409.231 292.71" stroke="#333333" stroke-width="1.5" stroke-miterlimit="10"/>
<path d="M361.1 206.904L394.378 210.694L393.409 211.506C366.73 233.873 328.816 236.9 298.926 219.048L328.654 210.694" stroke="#333333" stroke-width="1.5" stroke-miterlimit="10"/>
<path d="M416.83 400.791L454.672 377.728" stroke="#333333" stroke-width="1.5" stroke-miterlimit="10"/>
<path d="M453.179 341.614L401.5 387.48" stroke="#333333" stroke-width="1.5" stroke-miterlimit="10"/>
<path d="M454.672 341.686C452.077 341.78 449.519 340.776 447.684 338.825C441.506 332.257 419.507 315.021 409.585 292.555" stroke="#333333" stroke-width="1.5" stroke-miterlimit="10"/>
<path d="M394.378 210.694C418.208 213.568 435.417 230.184 439.846 241.047L473.295 298.252" stroke="#333333" stroke-width="1.5" stroke-miterlimit="10"/>
<path d="M409.969 293.128L420.277 259.229" stroke="#333333" stroke-width="1.5" stroke-miterlimit="10" stroke-linecap="round" stroke-linejoin="round"/>
<path d="M416.83 400.791C414.407 410.503 411.562 423.166 411.562 423.166" stroke="#333333" stroke-width="1.5" stroke-miterlimit="10"/>
<path d="M400.234 383.327L412.846 427.681" stroke="#333333" stroke-width="1.5" stroke-miterlimit="10" stroke-linecap="round" stroke-linejoin="round"/>
<path d="M257.671 358.126C263.334 350.519 289.461 323.647 297.499 296.305" stroke="#333333" stroke-width="1.5" stroke-miterlimit="10"/>
<path d="M298.926 219.049C275.582 224.634 264.438 240.009 261.282 251.308L236.721 307.157" stroke="#333333" stroke-width="1.5" stroke-miterlimit="10"/>
<path d="M297.066 296.053L282.943 263.557" stroke="#333333" stroke-width="1.5" stroke-miterlimit="10" stroke-linecap="round" stroke-linejoin="round"/>
<path d="M172.402 215.701L171.782 180.585C171.742 178.314 169.885 176.494 167.612 176.501C165.343 176.507 163.498 178.332 163.467 180.601L163.063 209.643L160.122 210.893L143.467 185.198C142.297 183.392 139.859 182.925 138.104 184.17C136.568 185.26 136.068 187.313 136.929 188.987L150.386 215.128L150.384 215.124C146.979 217.124 143.944 219.948 142.438 221.483C140.563 223.393 139.803 226.156 140.438 228.755C145.953 251.33 160.832 255.452 160.832 255.452L228.215 351.84C233.728 362.919 248.115 365.988 257.67 358.125C265.615 351.587 267.012 339.957 260.842 331.725L178.343 247.696L180.175 244.964C182.748 241.129 183.854 236.496 183.291 231.912L181.723 219.133C181.723 219.133 181.016 212.38 168.246 216.875C155.478 221.371 154.722 221.621 155.718 225.484C155.718 225.484 159.288 230.37 167.988 229.635" stroke="#333333" stroke-width="1.5" stroke-miterlimit="10"/>
<path d="M167.988 229.635C167.988 229.635 161.398 233.124 162.808 241.025" stroke="#333333" stroke-width="1.5" stroke-miterlimit="10" stroke-linecap="round" stroke-linejoin="round"/>
<path d="M308.882 157.574C307.429 158.353 305.806 158.875 304.067 159.07C296.726 159.9 290.102 154.621 289.273 147.28C288.443 139.939 293.722 133.316 301.063 132.486C301.712 132.413 302.356 132.387 302.99 132.406" stroke="#333333" stroke-width="1.5" stroke-miterlimit="10"/>
<path d="M294.841 144.544C294.841 144.544 299.923 141.514 305.752 150.296" stroke="#333333" stroke-width="1.5" stroke-miterlimit="10" stroke-linecap="round" stroke-linejoin="round"/>
<path d="M372.807 151.797C374.709 152.579 376.821 152.933 379.011 152.747C386.373 152.126 391.836 145.654 391.215 138.293C390.593 130.931 384.121 125.467 376.76 126.089C376.049 126.149 375.356 126.264 374.684 126.428" stroke="#333333" stroke-width="1.5" stroke-miterlimit="10"/>
<path d="M385.221 136.698C385.221 136.698 379.645 134.721 375.645 144.472" stroke="#333333" stroke-width="1.5" stroke-miterlimit="10" stroke-linecap="round" stroke-linejoin="round"/>
<path d="M392.533 211.175C406.479 174.351 402.52 126.579 375.118 85.5934L375.12 85.5919C366.128 73.3905 350.532 65.9768 333.5 67.4148C310.677 69.3421 293.064 86.5049 291.271 107.179H291.274C291.274 107.179 287.95 140.464 250.181 167.247C222.1 187.162 228.193 231.627 259.528 255.469" stroke="#333333" stroke-width="1.5" stroke-miterlimit="10"/>
<path d="M361.099 206.904L356.127 173.188" stroke="#333333" stroke-width="1.5" stroke-miterlimit="10"/>
<path d="M327.694 175.663L328.653 210.694" stroke="#333333" stroke-width="1.5" stroke-miterlimit="10"/>
<path d="M329.239 176.288C333.288 182.476 339.053 188.6 345.753 187.905C351.656 187.293 354.636 179.843 356.128 173.188C356.128 173.188 349.798 177.053 342.456 178.137C337.833 178.819 329.239 176.288 329.239 176.288Z" fill="#333333"/>
<path d="M372.763 105.837C374.055 110.888 374.103 114.637 374.103 114.637C375.393 129.051 374.356 141.683 372.999 150.703C371.67 159.534 366.295 166.104 358.369 171.715L356.925 172.736C348.539 178.673 337.12 179.816 327.694 175.663C318.187 171.474 311.254 165.45 308.472 156.35C303.412 139.799 301.351 121.151 301.351 121.151C301.351 121.151 300.67 116.989 301.139 111.294" stroke="#333333" stroke-width="1.5" stroke-miterlimit="10"/>
<path d="M336.237 137.913L336.713 143.548L340.565 143.223" stroke="#333333" stroke-width="1.5" stroke-miterlimit="10" stroke-linecap="round" stroke-linejoin="round"/>
<path d="M307.865 119.906L328.463 116.282C328.463 116.282 326.15 111.061 317.832 112.642C309.321 114.259 307.865 119.906 307.865 119.906Z" fill="#333333"/>
<path d="M364.92 115.088L344.007 114.969C344.007 114.969 345.411 109.434 353.876 109.598C362.539 109.765 364.92 115.088 364.92 115.088Z" fill="#333333"/>
<path d="M325.051 131.17C325.199 132.924 323.897 134.466 322.142 134.615C320.388 134.763 318.845 133.461 318.697 131.706C318.549 129.952 319.851 128.41 321.606 128.261C323.36 128.113 324.903 129.415 325.051 131.17Z" fill="#333333"/>
<path d="M356.218 128.538C356.366 130.292 355.064 131.834 353.31 131.983C351.555 132.131 350.013 130.829 349.865 129.074C349.717 127.32 351.019 125.778 352.773 125.629C354.527 125.481 356.07 126.783 356.218 128.538Z" fill="#333333"/>
<path d="M327.672 152.367C327.672 152.367 336.9 156.429 350.717 150.421" stroke="#333333" stroke-width="1.5" stroke-miterlimit="10" stroke-linecap="round" stroke-linejoin="round"/>
<path d="M373.354 105.773C373.354 105.773 315.763 112.816 315.339 78.7296C315.339 78.7296 364.481 60.2087 373.354 105.773Z" stroke="#333333" stroke-width="1.5" stroke-miterlimit="10"/>
<path d="M315.522 81.6173C310.406 83.4855 297.477 90.3899 299.715 112.019C299.715 112.019 314.705 104.203 317.276 88.3139" stroke="#333333" stroke-width="1.5" stroke-miterlimit="10"/>
<path d="M426.988 224.938V178.309C426.988 171.608 432.42 166.175 439.122 166.175H519.418C526.12 166.175 531.552 171.608 531.552 178.309V243.08C531.552 249.782 526.12 255.214 519.418 255.214H448.129" stroke="#333333" stroke-width="1.5" stroke-miterlimit="10"/>
</g>
</svg>
